<svg width="50" height="50" viewBox="0 0 50 50" fill="none" xmlns="http://www.w3.org/2000/svg">
<g clip-path="url(#clip0_423_253)">
<path d="M25 50C38.8071 50 50 38.8071 50 25C50 11.1929 38.8071 0 25 0C11.1929 0 0 11.1929 0 25C0 38.8071 11.1929 50 25 50Z" fill="#338AF3"/>
<path d="M39.1305 25.2718H10.8695C10.8695 27.2229 12.5689 28.8044 14.5197 28.8044H14.4022C14.4022 30.7555 15.9837 32.337 17.9348 32.337C17.9348 34.2881 19.5163 35.8696 21.4674 35.8696H28.5326C30.4837 35.8696 32.0652 34.2881 32.0652 32.337C34.0163 32.337 35.5979 30.7555 35.5979 28.8044H35.4803C37.431 28.8044 39.1305 27.2229 39.1305 25.2718V25.2718Z" fill="#FFDA44"/>
<path d="M34.7826 20.6522C34.7826 26.0549 30.4027 30.4348 25 30.4348C19.5972 30.4348 15.2174 26.0549 15.2174 20.6522" fill="#338AF3"/>
<path d="M32.4722 20.6522L29.4189 22.0884L31.0448 25.0454L27.7294 24.4112L27.3093 27.7604L25 25.297L22.6906 27.7604L22.2706 24.4112L18.9552 25.0452L20.581 22.0883L17.5278 20.6522L20.5811 19.216L18.9552 16.2591L22.2705 16.8933L22.6907 13.5441L25 16.0074L27.3094 13.5441L27.7294 16.8933L31.0449 16.2591L29.419 19.2161L32.4722 20.6522Z" fill="#FFDA44"/>
</g>
<defs>
<clipPath id="clip0_423_253">
<rect width="50" height="50" fill="white"/>
</clipPath>
</defs>
</svg>
