<svg width="50" height="50" viewBox="0 0 50 50" fill="none" xmlns="http://www.w3.org/2000/svg">
<g clip-path="url(#clip0_423_253)">
<path d="M25 50C38.8071 50 50 38.8071 50 25C50 11.1929 38.8071 0 25 0C11.1929 0 0 11.1929 0 25C0 38.8071 11.1929 50 25 50Z" fill="#D80027"/>
<path d="M27.5811 18.9129C27.0129 21.2761 26.0034 20.8254 25.508 22.8863C22.5898 22.1847 20.7925 19.2501 21.4942 16.3316C22.1955 13.4134 25.1304 11.6161 28.0487 12.3178C27.0578 16.4395 28.0894 16.7993 27.5811 18.9129Z" fill="#F0F0F0"/>
<path d="M20.0085 20.6641C22.0805 21.9346 21.3399 22.7556 23.1467 23.8637C21.5775 26.4224 18.2314 27.2246 15.6726 25.6556C13.1139 24.0865 12.3114 20.7401 13.8806 18.1815C17.4944 20.3975 18.1551 19.5277 20.0085 20.6641V20.6641Z" fill="#F0F0F0"/>
<path d="M19.3338 28.4074C21.1825 26.8295 21.7342 27.7875 23.3464 26.4115C25.2951 28.6944 25.024 32.1249 22.7412 34.0736C20.4582 36.0223 17.0278 35.751 15.0793 33.4682C18.3033 30.716 17.6802 29.8186 19.3338 28.4074Z" fill="#F0F0F0"/>
<path d="M26.4896 31.4419C25.56 29.1961 26.6416 28.9672 25.8311 27.0089C28.6045 25.8611 31.7834 27.1789 32.9312 29.9523C34.079 32.7256 32.761 35.9044 29.9877 37.0523C28.3669 33.1354 27.3211 33.4507 26.4896 31.4419Z" fill="#F0F0F0"/>
<path d="M31.5869 25.5738C29.1638 25.7639 29.2801 24.6643 27.1673 24.8301C26.9326 21.8381 29.1684 19.2217 32.1607 18.9869C35.1528 18.7526 37.7691 20.9882 38.0036 23.9805C33.7774 24.3119 33.754 25.404 31.5869 25.5738Z" fill="#F0F0F0"/>
</g>
<defs>
<clipPath id="clip0_423_253">
<rect width="50" height="50" fill="white"/>
</clipPath>
</defs>
</svg>
